<svg xmlns="http://www.w3.org/2000/svg" width="1024" height="1024" viewBox="0 0 1024 1024"><path d="M274.338 416.702c8.187-.944 18.187-.237 26.264 1.333 88.092 17.13 85.963 158.486-7.488 167.799-2.996.59-8.323.249-11.451.183-43.523-1.279-73.716-30.333-78.26-73.28-5.102-48.208 20.375-90.259 70.935-96.035m12.778 131.165c41.214-3.784 51.586-57.592 22.792-82.701-6.459-5.633-20.093-10.487-28.672-8.954-56.014 4.176-50.666 94.434 5.88 91.655"/><path d="M594.087 419.557c8.141-.119 16.919.465 25.414.369 16.5-.107 32.231-1.69 48.521 1.797 30.182 6.461 42.793 34.224 35.805 62.828-3.882 15.89-10.971 22.355-24.452 30.713 4.366 8.673 10.134 16.94 14.833 25.439 7.95 14.379 17.556 28.584 24.957 43.193-12.134.366-25.315-.115-37.691.071l-8.013-.021c-4.834-9.242-30.185-57.26-35.514-62.327-1.582-.142-.845-.302-2.256.616-1.317 4.781-.543 20.273-.527 26.357l-.157 35.305-41.1.096c-.83-17.188-.034-41.31.01-58.945zm40.876 74.204c9.785.412 18.653.475 26.689-6.04 7.943-9.01 8.481-20.601-.859-29.243-7.455-6.899-16.939-4.223-25.769-5.597.089 12.858.495 28.202-.061 40.88"/><path d="M372.521 419.636c3.684-.028 7.427-.012 11.108.156 21.116.966 42.779-1.687 63.636 2.007 40.131 6.996 52.356 59.855 30.215 89.932-10.335 14.039-24.755 19.455-41.366 21.719-8.476.858-15.219.386-22.724 1.015q.187 24.524-.289 49.044c-11.91.752-28.51.546-40.562.3-.672-30.21.113-61.982.047-92.386l-.178-43.207c-.058-9.684-.351-18.9.113-28.58m40.72 33.828c.319 11.98.598 35.145-.222 46.654 9.979.243 17.834 1.004 26.939-3.66 15.585-10.433 13.214-39.726-7.208-42.189-3.961-.478-8.187-.96-12.175-1.01-2.642.164-4.652.255-7.334.205"/><path d="M741.83 415.687c99.303-4.953 105.637 152.637 23.797 168.198-11.269 1.222-23.615 3.061-34.295-1.479-2.564-7.994-7.654-45.846-7.864-54.639 10.879 4.032 21.713 3.538 28.719-6.988a24.66 24.66 0 0 0 3.547-19.317c-2.229-9.517-9.779-17.591-19.857-18.309-4.082-.292-7.498.616-11.422 1.551-.006-6.485 1.141-16.482 1.709-23.333q1.81-22.096 4.011-44.157c3.668-.341 7.958-1.029 11.655-1.527"/><path d="m495.514 419.47 85.387.152q-.027 17.204.126 34.406c-14.871-.635-31.181.552-45.665-.196.263 10.026-.189 19.864.069 29.856 12.163-.63 27.878.025 40.521-.098.137 11.528-.044 22.979.227 34.537-13.508.259-27.069.019-40.694.318.128 8.813.01 17.85-.005 26.68-.044 1.395-.036 1.402.276 2.766 1.981 1.151 41.135.635 47.014.634q.26 17.621.26 35.245c-27.736 1.17-59.301-.435-87.498.076l.067-102.235a4767 4767 0 0 1-.085-62.141"/></svg>